<svg height="1208pt" viewBox="-141 0 1208 1208" width="1208pt" xmlns="http://www.w3.org/2000/svg"><path d="m20.132812 140.933594h644.265626v926.132812h-644.265626zm0 0" fill="#cce2fc"/><path d="m604 20.132812h-523.46875c-33.355469 0-60.398438 27.042969-60.398438 60.398438v60.402344h644.265626v-60.402344c0-33.355469-27.042969-60.398438-60.398438-60.398438zm0 0" fill="#d1d3d4"/><path d="m100.664062 1187.867188h483.203126c44.476562 0 80.53125-36.054688 80.53125-80.53125v-40.269532h-644.265626v40.269532c0 44.476562 36.054688 80.53125 80.53125 80.53125zm281.867188-60.398438" fill="#d1d3d4"/><path d="m644.265625 342.265625c-144.550781 0-261.734375 117.183594-261.734375 261.734375v281.867188l80.132812-93.621094c103.964844 100.429687 269.660157 97.566406 370.089844-6.402344 100.429688-103.964844 97.566406-269.660156-6.402344-370.089844-48.859374-47.199218-114.152343-73.550781-182.085937-73.488281zm-140.933594 302c-22.238281 0-40.265625-18.027344-40.265625-40.265625s18.027344-40.265625 40.265625-40.265625 40.269531 18.027344 40.269531 40.265625c-.003906 22.238281-18.03125 40.265625-40.269531 40.265625zm140.933594 0c-22.238281 0-40.265625-18.027344-40.265625-40.265625s18.027344-40.265625 40.265625-40.265625 40.265625 18.027344 40.265625 40.265625-18.027344 40.265625-40.265625 40.265625zm140.933594 0c-22.238281 0-40.265625-18.027344-40.265625-40.265625s18.027344-40.265625 40.265625-40.265625 40.265625 18.027344 40.265625 40.265625-18.027344 40.265625-40.265625 40.265625zm0 0" fill="#ffeb99"/><path d="m684.53125 604c0 22.238281-18.027344 40.265625-40.265625 40.265625s-40.265625-18.027344-40.265625-40.265625 18.027344-40.265625 40.265625-40.265625 40.265625 18.027344 40.265625 40.265625zm0 0" fill="#ffe166"/><path d="m543.601562 604c0 22.238281-18.03125 40.265625-40.269531 40.265625s-40.265625-18.027344-40.265625-40.265625 18.027344-40.265625 40.265625-40.265625 40.269531 18.027344 40.269531 40.265625zm0 0" fill="#ffe166"/><path d="m825.464844 604c0 22.238281-18.027344 40.265625-40.265625 40.265625s-40.265625-18.027344-40.265625-40.265625 18.027344-40.265625 40.265625-40.265625 40.265625 18.027344 40.265625 40.265625zm0 0" fill="#ffe166"/><g fill="#231f20"><path d="m664.398438 906c-11.117188 0-20.132813 9.015625-20.132813 20.132812v120.800782h-604v-885.867188h604v120.800782c0 11.117187 9.015625 20.132812 20.132813 20.132812 11.121093 0 20.132812-9.015625 20.132812-20.132812v-201.335938c0-44.476562-36.054688-80.53125-80.53125-80.53125h-523.46875c-44.476562 0-80.53125 36.054688-80.53125 80.53125v1026.800781c.0664062 55.570313 45.097656 100.601563 100.664062 100.667969h483.203126c55.566406-.066406 100.597656-45.097656 100.664062-100.667969v-181.199219c0-11.117187-9.011719-20.132812-20.132812-20.132812zm-583.867188-865.734375h523.46875c22.238281 0 40.265625 18.03125 40.265625 40.269531v40.265625h-604v-40.269531c0-22.234375 18.027344-40.265625 40.265625-40.265625zm503.335938 1127.46875h-483.203126c-33.355468 0-60.398437-27.042969-60.398437-60.402344v-20.132812h604v20.132812c0 33.359375-27.042969 60.402344-60.398437 60.402344zm0 0"/><path d="m382.53125 1107.332031h-80.53125c-11.117188 0-20.132812 9.015625-20.132812 20.132813 0 11.121094 9.015624 20.132812 20.132812 20.132812h80.53125c11.121094 0 20.132812-9.011718 20.132812-20.132812 0-11.117188-9.011718-20.132813-20.132812-20.132813zm0 0"/><path d="m644.265625 322.132812c-155.601563.167969-281.699219 126.265626-281.867187 281.867188v281.867188c0 8.425781 5.246093 15.960937 13.148437 18.886718 2.238281.8125 4.601563 1.238282 6.984375 1.246094 5.886719 0 11.476562-2.574219 15.300781-7.046875l66.863281-78.117187c50.351563 42.113281 113.929688 65.140624 179.570313 65.03125 155.671875 0 281.867187-126.195313 281.867187-281.867188s-126.195312-281.867188-281.867187-281.867188zm0 523.46875c-62.574219.179688-122.730469-24.164062-167.570313-67.8125-.160156-.160156-.382812-.199218-.523437-.339843s-.242187-.363281-.402344-.503907c-.921875-.628906-1.898437-1.171874-2.917969-1.628906-1.113281-.789062-2.296874-1.460937-3.542968-2.015625-1.136719-.300781-2.292969-.503906-3.464844-.601562-1.363281-.320313-2.761719-.484375-4.167969-.484375-1.101562.140625-2.195312.367187-3.261719.683594-1.429687.222656-2.824218.609374-4.167968 1.148437-1.082032.582031-2.113282 1.253906-3.078125 2.015625-1.039063.578125-2.023438 1.253906-2.941407 2.011719-.160156.160156-.199218.382812-.339843.542969-.144531.160156-.363281.222656-.503907.382812l-44.71875 52.386719v-227.386719c0-133.433594 108.171876-241.601562 241.601563-241.601562 133.433594 0 241.601563 108.167968 241.601563 241.601562s-108.167969 241.601562-241.601563 241.601562zm0 0"/><path d="m644.265625 543.601562c-33.359375 0-60.398437 27.039063-60.398437 60.398438s27.039062 60.398438 60.398437 60.398438 60.398437-27.039063 60.398437-60.398438-27.039062-60.398438-60.398437-60.398438zm0 80.53125c-11.117187 0-20.132813-9.015624-20.132813-20.132812s9.015626-20.132812 20.132813-20.132812c11.121094 0 20.132813 9.015624 20.132813 20.132812s-9.011719 20.132812-20.132813 20.132812zm0 0"/><path d="m503.332031 543.601562c-33.355469 0-60.398437 27.039063-60.398437 60.398438s27.042968 60.398438 60.398437 60.398438c33.359375 0 60.402344-27.039063 60.402344-60.398438s-27.042969-60.398438-60.402344-60.398438zm0 80.53125c-11.117187 0-20.132812-9.015624-20.132812-20.132812s9.015625-20.132812 20.132812-20.132812c11.121094 0 20.132813 9.015624 20.132813 20.132812s-9.011719 20.132812-20.132813 20.132812zm0 0"/><path d="m785.199219 543.601562c-33.359375 0-60.398438 27.039063-60.398438 60.398438s27.039063 60.398438 60.398438 60.398438 60.398437-27.039063 60.398437-60.398438-27.039062-60.398438-60.398437-60.398438zm0 80.53125c-11.121094 0-20.132813-9.015624-20.132813-20.132812s9.011719-20.132812 20.132813-20.132812c11.117187 0 20.132812 9.015624 20.132812 20.132812s-9.011719 20.132812-20.132812 20.132812zm0 0"/></g></svg>